<?xml version="1.0" encoding="UTF-8" standalone="no"?>
<!--part of the matt icon theme by sixsixfive released under CC0 (https://creativecommons.org/publicdomain/zero/1.0/) on openclipart-->
<svg xmlns="http://www.w3.org/2000/svg" xmlns:xlink="http://www.w3.org/1999/xlink" viewBox="0 0 128 128">
 <defs id="0">
  <linearGradient id="C">
   <stop id="f" stop-color="#424242"/>
   <stop offset="1" id="g" stop-color="#282828"/>
  </linearGradient>
  <linearGradient id="D">
   <stop id="h" stop-color="#fafafa"/>
   <stop offset="1" id="i" stop-color="#e9e9e9"/>
  </linearGradient>
  <linearGradient id="E">
   <stop id="j"/>
   <stop offset="1" id="k" stop-opacity="0"/>
  </linearGradient>
  <linearGradient id="F">
   <stop id="l" stop-opacity="0.33"/>
   <stop offset="1" id="m" stop-opacity="0"/>
  </linearGradient>
  <linearGradient id="G">
   <stop id="n" stop-color="#fff"/>
   <stop offset="1" id="o" stop-color="#fff" stop-opacity="0"/>
  </linearGradient>
  <linearGradient id="H">
   <stop id="p" stop-color="#323232"/>
   <stop offset="1" id="q" stop-color="#252525"/>
  </linearGradient>
  <linearGradient id="I">
   <stop id="r" stop-color="#eee"/>
   <stop offset="1" id="s" stop-color="#ddd"/>
  </linearGradient>
  <radialGradient xlink:href="#I" id="J" cx="36.794" cy="62.08" r="55.766" gradientTransform="matrix(0.7667623,-0.104838,5.399168e-2,0.3948832,10.082408,-2.9781214)" gradientUnits="userSpaceOnUse"/>
  <radialGradient xlink:href="#H" id="K" cx="28.02" cy="16.985" r="62.2" gradientTransform="matrix(1.5841217,-0.2442028,0.1394764,0.9047707,-16.750946,26.630343)" gradientUnits="userSpaceOnUse"/>
  <filter id="L" x="-0.012" width="1.025" y="-0.396" height="1.792">
   <feGaussianBlur stdDeviation="0.59926" id="t"/>
  </filter>
  <linearGradient xlink:href="#E" id="M" y1="29.321" x2="0" y2="25.688" gradientUnits="userSpaceOnUse"/>
  <radialGradient xlink:href="#G" id="N" cx="52.981" cy="-3.245" r="53.55" gradientTransform="matrix(1.8022603,2.6564914e-2,-1.2372843e-2,0.8394186,-30.322336,8.4010665)" gradientUnits="userSpaceOnUse"/>
  <radialGradient xlink:href="#G" id="O" cx="58" cy="-21.826" r="59.896" gradientTransform="matrix(1.9737017,-4.2747877e-2,1.3570323e-2,0.6265521,-54.434832,27.088068)" gradientUnits="userSpaceOnUse"/>
  <linearGradient xlink:href="#F" id="P" y1="109.56" x2="0" y2="101.48" gradientUnits="userSpaceOnUse"/>
  <radialGradient xlink:href="#E" id="Q" cx="65.14" cy="106.7" r="63.15" gradientTransform="matrix(1,0,0,5.8823529e-2,0,100.42419)" gradientUnits="userSpaceOnUse"/>
  <filter id="R">
   <feGaussianBlur stdDeviation="1.88808" id="u"/>
  </filter>
  <filter id="S" x="-0.02" width="1.041" y="-0.345" height="1.689">
   <feGaussianBlur stdDeviation="1.06662" id="v"/>
  </filter>
  <radialGradient xlink:href="#D" id="T" cx="59.861" cy="37.3" r="62.688" gradientTransform="matrix(1.4247227,-0.495246,0.3136978,0.9024454,-67.252856,44.377637)" gradientUnits="userSpaceOnUse"/>
  <radialGradient xlink:href="#C" id="U" cx="47.37" cy="-16.891" r="62.36" gradientTransform="matrix(1,0,0,0.4309663,0,31.599153)" gradientUnits="userSpaceOnUse"/>
 </defs>
 <path id="1" d="M 128.29104,106.70071 A 63.154858,3.7149916 0 1 1 1.9813271,106.70071 A 63.154858,3.7149916 0 1 1 128.29104,106.70071 z" transform="matrix(1.1470588,0,0,1,-10.715034,-0.7429983)" opacity="0.541" fill="url(#Q)" filter="url(#S)" stroke-linejoin="bevel" stroke-linecap="round" stroke-width="1.949"/>
 <path id="2" d="M 17.78125,11.09375 C 14.392952,11.09375 11.59375,13.892958 11.59375,17.28125 L 11.59375,21.21875 C 8.6713464,21.704786 6.375,24.17052 6.375,27.21875 L 6.375,103.3125 C 6.3750006,106.70079 9.1741985,109.5 12.5625,109.5 L 116.375,109.5 C 119.7633,109.5 122.59375,106.72373 122.59375,103.3125 L 122.59375,27.21875 C 122.59375,23.807525 119.7633,21.03125 116.375,21.03125 L 56.59375,21.03125 L 56.59375,17.28125 C 56.59375,13.892951 53.794545,11.09375 50.40625,11.09375 L 17.78125,11.09375 z" transform="matrix(0.9652278,0,0,0.9652278,2.9590038,0.385754)" fill="#898989" stroke-linejoin="bevel" stroke-linecap="round" stroke-width="2"/>
 <path d="M 20.114824,13.348291 C 18.056621,13.348291 16.40473,15.000187 16.40473,17.058386 L 16.40473,22.940243 L 15.077542,22.940243 C 13.019338,22.940243 11.367447,24.592139 11.367447,26.650337 L 11.367447,100.09814 C 11.367447,102.15633 13.019338,103.80823 15.077542,103.80823 L 115.28026,103.80823 C 117.33845,103.80823 119.02052,102.15633 119.02052,100.09814 L 119.02052,26.650337 C 119.02052,24.592139 117.33846,22.940243 115.28026,22.940243 L 55.315476,22.940243 L 55.315476,17.058386 C 55.315476,15.000188 53.663575,13.348291 51.605382,13.348291 L 20.114824,13.348291 z" id="3" fill="url(#J)" stroke-linejoin="bevel" stroke-linecap="round" stroke-width="2"/>
 <path id="4" d="M 20.125,14.625 C 18.758893,14.625 17.6875,15.696396 17.6875,17.0625 L 17.6875,22.9375 C 17.684419,23.643834 17.112584,24.215669 16.40625,24.21875 L 15.0625,24.21875 C 13.696392,24.21875 12.65625,25.277123 12.65625,26.65625 L 12.65625,100.09375 C 12.65625,101.47287 13.696395,102.53125 15.0625,102.53125 L 115.28125,102.53125 C 116.64734,102.53125 117.75,101.44681 117.75,100.09375 L 117.75,26.65625 C 117.75,25.303174 116.64735,24.21875 115.28125,24.21875 L 55.3125,24.21875 C 54.606166,24.215669 54.034331,23.643834 54.03125,22.9375 L 54.03125,17.0625 C 54.031251,15.696403 52.959844,14.625 51.59375,14.625 L 20.125,14.625 z" fill="none" stroke="url(#N)" stroke-linejoin="bevel" stroke-linecap="round" stroke-width="2"/>
 <path d="M 122.21875,25.687905 L 6.375,25.711212 L 6.375,29.049546 C 6.3750006,29.198195 9.1741985,29.321 12.5625,29.321 L 116.375,29.321 C 119.7633,29.321 122.59375,29.199201 122.59375,29.049546 L 122.59375,25.711212 C 122.59375,25.703724 122.57639,25.696612 122.5625,25.689276 C 122.44634,25.68897 122.33648,25.687905 122.21875,25.687905 z" id="5" transform="matrix(0.9652278,0,0,1.3063538,2.9590038,-9.6164018)" opacity="0.429" fill="url(#M)" filter="url(#L)" stroke-linejoin="bevel" stroke-linecap="round" stroke-width="1.949"/>
 <path d="M 7.6709722,28.976586 L 120.91382,28.452911 C 122.80603,28.452911 124.32938,29.976246 124.32938,31.868459 L 122.56958,100.41018 C 122.56958,102.30239 121.04624,103.82572 119.15403,103.82572 L 11.208822,103.82572 C 9.3166087,103.82572 7.7932762,102.30239 7.7932762,100.41018 L 4.2554238,32.392135 C 4.2554238,30.499921 5.7787589,28.976586 7.6709722,28.976586 z" id="6" fill="url(#K)" stroke-linejoin="bevel" stroke-linecap="round" stroke-width="1.949"/>
 <path d="M 122.21875,26.6875 L 4.875,27.21875 C 1.6279319,27.21875 -1.0625,29.909183 -1.0625,33.15625 C -1.0635813,33.19791 -1.0635813,33.23959 -1.0625,33.28125 L 2.59375,103.625 L 2.59375,103.75 L 2.625,103.75 C 2.6978833,106.96136 5.3597163,109.5625 8.5625,109.5625 L 120.375,109.5625 C 123.62207,109.5625 126.3125,106.87207 126.3125,103.625 L 128.15625,32.6875 C 128.15652,32.666668 128.15652,32.645832 128.15625,32.625 C 128.15625,29.377933 125.46582,26.6875 122.21875,26.6875 z" id="7" transform="matrix(0.9652278,0,0,0.9652278,2.9590038,0.385754)" fill="url(#P)" filter="url(#R)" stroke-linejoin="bevel" stroke-linecap="round" stroke-width="1.949"/>
 <g id="8" fill="url(#T)">
  <path d="M 115.59375 30.1875 C 113.89819 30.187499 112.53125 31.585691 112.53125 33.28125 L 112.53125 103.90625 C 112.53125 104.76954 112.86351 105.5668 113.4375 106.125 L 119.15625 106.125 C 122.29041 106.125 124.875 103.54041 124.875 100.40625 L 126.34375 43.9375 L 126.34375 33.28125 C 126.34375 31.585691 124.97681 30.1875 123.28125 30.1875 L 115.59375 30.1875 z " id="V" stroke="#323232"/>
  <path d="M 5 30.1875 C 3.3999215 30.187499 2.1118429 31.437035 1.96875 33 L 5.46875 100.40625 L 5.46875 100.53125 L 5.5 100.53125 C 5.570349 103.63094 8.1273341 106.125 11.21875 106.125 L 14.84375 106.125 C 15.417742 105.5668 15.75 104.76954 15.75 103.90625 L 15.75 33.28125 C 15.75 31.585691 14.383059 30.1875 12.6875 30.1875 L 5 30.1875 z " id="W" stroke="#323232"/>
  <path d="M 101.78125,30.1875 C 100.08569,30.187499 98.6875,31.585691 98.6875,33.28125 L 98.6875,103.90625 C 98.687499,104.76954 99.051007,105.5668 99.625,106.125 L 111.59375,106.125 C 112.16774,105.5668 112.53125,104.76954 112.53125,103.90625 L 112.53125,33.28125 C 112.53125,31.585691 111.13306,30.1875 109.4375,30.1875 L 101.78125,30.1875 z" id="X" stroke="#323232"/>
  <path d="M 87.9375,30.1875 C 86.241939,30.187499 84.875,31.585691 84.875,33.28125 L 84.875,103.90625 C 84.874998,104.77024 85.237691,105.56671 85.8125,106.125 L 97.75,106.125 C 98.324809,105.56671 98.6875,104.77024 98.6875,103.90625 L 98.6875,33.28125 C 98.687499,31.585691 97.320559,30.1875 95.625,30.1875 L 87.9375,30.1875 z" id="Y" stroke="#323232"/>
  <path d="M 74.125,30.1875 C 72.429443,30.187499 71.0625,31.585691 71.0625,33.28125 L 71.0625,103.90625 C 71.062501,104.76954 71.394758,105.5668 71.96875,106.125 L 83.9375,106.125 C 84.51231,105.56671 84.875,104.77024 84.875,103.90625 L 84.875,33.28125 C 84.874997,31.585691 83.508059,30.1875 81.8125,30.1875 L 74.125,30.1875 z" id="Z" stroke="#323232"/>
  <path d="M 60.3125,30.1875 C 58.616941,30.187499 57.21875,31.585691 57.21875,33.28125 L 57.21875,103.90625 C 57.218751,104.76954 57.582257,105.5668 58.15625,106.125 L 70.125,106.125 C 70.698992,105.5668 71.0625,104.76954 71.0625,103.90625 L 71.0625,33.28125 C 71.062501,31.585691 69.664309,30.1875 67.96875,30.1875 L 60.3125,30.1875 z" id="a" stroke="#323232"/>
  <path d="M 46.46875,30.1875 C 44.773192,30.187499 43.40625,31.585691 43.40625,33.28125 L 43.40625,103.90625 C 43.406249,104.77024 43.76894,105.56671 44.34375,106.125 L 56.3125,106.125 C 56.886492,105.5668 57.21875,104.76954 57.21875,103.90625 L 57.21875,33.28125 C 57.218752,31.585691 55.851808,30.1875 54.15625,30.1875 L 46.46875,30.1875 z" id="b" stroke="#323232"/>
  <path d="M 32.65625,30.1875 C 30.960692,30.187499 29.59375,31.585691 29.59375,33.28125 L 29.59375,103.90625 C 29.59375,104.76954 29.926008,105.5668 30.5,106.125 L 42.46875,106.125 C 43.04356,105.56671 43.40625,104.77024 43.40625,103.90625 L 43.40625,33.28125 C 43.406249,31.585691 42.039309,30.1875 40.34375,30.1875 L 32.65625,30.1875 z" id="c" stroke="#323232"/>
  <path d="M 18.84375,30.1875 C 17.148191,30.187499 15.75,31.585691 15.75,33.28125 L 15.75,103.90625 C 15.75,104.76954 16.113508,105.5668 16.6875,106.125 L 28.65625,106.125 C 29.230242,105.5668 29.59375,104.76954 29.59375,103.90625 L 29.59375,33.28125 C 29.593749,31.585691 28.195559,30.1875 26.5,30.1875 L 18.84375,30.1875 z" id="d" stroke="#323232"/>
 </g>
 <g id="9" fill="url(#U)">
  <path id="e" d="M 3.34375 28.65625 C 2.471204 29.663587 1.9375 30.956868 1.9375 32.375 C 1.9364563 32.415212 1.9364563 32.459789 1.9375 32.5 L 2.125 36.34375 L 11.15625 36.34375 L 11.15625 82.40625 L 18.84375 82.40625 L 18.84375 36.34375 L 26.5 36.34375 L 26.5 82.40625 L 34.1875 82.40625 L 34.1875 36.34375 L 52.625 36.34375 L 52.625 82.40625 L 60.3125 82.40625 L 60.3125 36.34375 L 67.21875 36.34375 L 67.21875 82.40625 L 74.875 82.40625 L 74.875 36.34375 L 81.8125 36.34375 L 81.8125 82.40625 L 89.46875 82.40625 L 89.46875 36.34375 L 107.90625 36.34375 L 107.90625 82.40625 L 115.59375 82.40625 L 115.59375 36.34375 L 123.28125 36.34375 L 123.28125 82.40625 L 125.34375 82.40625 L 126.53125 36.34375 L 126.65625 31.9375 C 126.65651 31.917392 126.65651 31.895108 126.65625 31.875 C 126.65625 30.684242 126.293 29.578949 125.65625 28.65625 L 3.34375 28.65625 z "/>
 </g>
 <path id="A" d="M 120.9375,25.5625 L 7.65625,26.0625 C 4.2025151,26.0625 1.34375,28.921266 1.34375,32.375 C 1.3424172,32.426351 1.3424172,32.44865 1.34375,32.5 C 1.34347,32.510415 1.34347,32.520835 1.34375,32.53125 L 4.875,100.40625 L 4.875,100.4375 L 4.875,100.53125 C 4.8814188,100.63153 4.9137191,100.72843 4.96875,100.8125 C 4.977904,100.83394 4.9883396,100.85481 5,100.875 C 5.2623122,104.11553 7.9373129,106.71875 11.21875,106.71875 L 119.15625,106.71875 C 122.60998,106.71875 125.46875,103.85998 125.46875,100.40625 L 127.25,31.9375 C 127.25033,31.91184 127.25033,31.90066 127.25,31.875 C 127.25,28.421266 124.39123,25.5625 120.9375,25.5625 z M 120.9375,29.03125 C 122.47892,29.03125 123.78125,30.333587 123.78125,31.875 C 123.78125,31.877939 123.78125,31.902307 123.78125,31.90625 L 122,100.34375 C 121.99967,100.36941 121.99967,100.38059 122,100.40625 C 122,101.94767 120.69767,103.25 119.15625,103.25 L 11.21875,103.25 C 9.6862142,103.25 8.4101105,102.01578 8.375,100.46875 C 8.3730038,100.35768 8.3583496,100.23512 8.34375,100.125 C 8.3438347,100.11212 8.3438343,100.10661 8.34375,100.09375 C 8.34403,100.08334 8.34403,100.07291 8.34375,100.0625 L 4.8125,32.4375 C 4.8126694,32.424621 4.8125,32.419258 4.8125,32.40625 C 4.8125,32.393242 4.8126693,32.387876 4.8125,32.375 C 4.8125,30.833589 6.1148375,29.53125 7.65625,29.53125 L 120.9375,29.03125 z" fill="#222" stroke-linejoin="bevel" stroke-linecap="round" stroke-width="1.949"/>
 <path id="B" d="M 120.90625,29.5625 L 7.65625,30.09375 C 6.3828582,30.09375 5.3749999,31.120343 5.375,32.40625 L 8.90625,100.34375 C 8.9068228,100.36458 8.9068228,100.38542 8.90625,100.40625 C 8.90625,101.67964 9.9328455,102.6875 11.21875,102.6875 L 119.15625,102.6875 C 120.44215,102.6875 121.4375,101.69215 121.4375,100.40625 C 121.43736,100.39583 121.43736,100.38542 121.4375,100.375 L 123.21875,31.84375 C 123.21875,30.570361 122.17964,29.5625 120.90625,29.5625 z" fill="none" stroke="url(#O)" stroke-linejoin="bevel" stroke-linecap="round" stroke-width="1.949"/>
</svg>